M48
INCH,LZ
VER,1
FMAT,2
T01C0.019685F1B1S6H2000
T02C0.027559F1B1S6H2000
T03C0.035433F1B1S6H2000
DETECT,ON
ATC,ON
%
T01
X070787Y102214
X070797Y104884
X072287Y102724
X073397Y104524
X073747Y104884
X075067Y103334
X075077Y103834
X068717Y105514
X070777Y106594
X072207Y106034
X072697Y105934
X072707Y105324
X075007Y105574
X069517Y107294
T02
X071657Y105164
X071797Y104234
X072327Y103914
X075777Y103894
X069687Y106334
X074777Y106404
X075777Y105894
X075707Y107404
T03
X067277Y101894
X068277
X069277
X070277
X071277
X072277
X073277
X074277
X075277
X076277
X077277
X078277
X067277Y102894
Y104894
Y105894
Y103894
Y106894
X077277Y102894
Y103894
X078277Y105894
Y106894
Y103894
Y102894
X067277Y107894
X068277
X069277
X070277
X071277
X072277
X073277
X074277
X075277
X076277
X077277
X078277
M30
